<?xml version="1.0" encoding="UTF-8"?>
<svg version="1.1" xmlns="http://www.w3.org/2000/svg" width="320" height="320">
<path d="M0 0 C1.70524333 -0.00515254 3.41048131 -0.01244379 5.1157074 -0.02168274 C9.7004614 -0.04003243 14.28462604 -0.02736443 18.86935472 -0.00759244 C23.69321276 0.00892717 28.51703733 -0.00003694 33.34091187 -0.00511169 C41.4355397 -0.00961703 49.52993528 0.0061421 57.62451172 0.03417969 C66.95357095 0.06624613 76.28221207 0.06620226 85.61130106 0.04896492 C94.62684927 0.03304764 103.64224568 0.03986535 112.65778732 0.05690193 C116.47645538 0.06373484 120.29500037 0.062779 124.11366653 0.05535698 C128.6168655 0.04764018 133.11959407 0.05999438 137.62271309 0.08720589 C139.26528465 0.09403382 140.90790063 0.09424855 142.55047035 0.08699036 C154.58080815 0.03999481 166.21262262 1.10049323 176.43896484 8.13110352 C177.28458984 8.69829102 178.13021484 9.26547852 179.00146484 9.84985352 C190.29482587 18.10269427 198.66457954 29.69869329 201.43896484 43.63110352 C201.53772928 46.00060149 201.57824698 48.37270514 201.58613586 50.74424744 C201.58981255 51.46128155 201.59348924 52.17831566 201.59727734 52.91707808 C201.60829229 55.32037704 201.61215437 57.72363272 201.6159668 60.12695312 C201.62223334 61.85027198 201.62888031 63.57358948 201.63587952 65.29690552 C201.65690805 70.95907656 201.66728407 76.62124781 201.67724609 82.28344727 C201.68129477 84.23584062 201.68541173 86.18823384 201.68959618 88.14062691 C201.70864898 97.31846288 201.72287712 106.49629083 201.73120815 115.67414278 C201.74096676 126.24895212 201.76724991 136.82355138 201.80770904 147.39828676 C201.83794182 155.58279337 201.85268399 163.76724003 201.85598916 171.95180136 C201.85833241 176.83436093 201.86719739 181.7166961 201.89245033 186.59919548 C201.9158602 191.19984614 201.91991278 195.80012673 201.90968895 200.40082169 C201.90919652 202.08049951 201.91542944 203.76019635 201.929245 205.43981743 C202.06290049 222.66662498 198.30593143 236.45312486 186.25146484 249.38110352 C175.38771741 259.70814111 162.22385054 264.73551005 147.3822937 264.77154541 C146.35212354 264.77600209 146.35212354 264.77600209 145.30114186 264.78054881 C143.01227212 264.78918276 140.72345501 264.79073955 138.43457031 264.79223633 C136.78815094 264.79686833 135.14173263 264.80189351 133.49531555 264.80728149 C129.03013189 264.82037229 124.56496324 264.82684418 120.09976339 264.83129215 C117.3059084 264.83422877 114.51205745 264.83833473 111.7182045 264.84279633 C102.96485409 264.85646368 94.21151299 264.86613357 85.45815265 264.86999822 C75.37636339 264.8744746 65.29471 264.89200623 55.21296203 264.92099881 C47.40549663 264.94266644 39.59806932 264.95270523 31.79057419 264.95403934 C27.13447787 264.9550839 22.4785094 264.96091691 17.82244492 264.97885895 C13.43767602 264.99542732 9.05312987 264.99745294 4.66834068 264.98871994 C3.06726291 264.98795418 1.46617271 264.99223073 -0.13487434 265.00217819 C-17.8089496 265.10546733 -33.03966539 261.59819459 -46.32250977 249.22290039 C-57.91172771 237.65101716 -61.92510226 223.39617051 -61.97872925 207.36462402 C-61.97449265 205.78173742 -61.96993495 204.19885165 -61.96508789 202.6159668 C-61.97080051 200.92116854 -61.9777682 199.22637413 -61.98588562 197.53158569 C-62.00373444 192.95707382 -62.00266423 188.38275463 -61.99694324 183.80821848 C-61.99383912 179.97650188 -61.99995743 176.14482164 -62.00598198 172.31311023 C-62.01999866 163.26689586 -62.01848999 154.22077597 -62.00708008 145.17456055 C-61.99560373 135.87059906 -62.00967296 126.566926 -62.03647655 117.26300251 C-62.05869403 109.24818598 -62.06525728 101.23345958 -62.05940014 93.21861446 C-62.05604355 88.44349497 -62.05835865 83.66856027 -62.07565117 78.89346695 C-62.09121485 74.40020688 -62.08706127 69.90737122 -62.06834602 65.41412735 C-62.06468595 63.77477087 -62.06769232 62.13538228 -62.07823181 60.4960556 C-62.17361857 44.41948748 -58.99434562 29.26732619 -47.62084961 17.2043457 C-34.00245836 3.45850652 -18.76795549 -0.14623883 0 0 Z " fill="#F9970A" transform="translate(88.56103515625,24.368896484375)"/>
<path d="M0 0 C42.9 0 85.8 0 130 0 C130 42.9 130 85.8 130 130 C115.7275 130.0825 101.455 130.165 86.75 130.25 C80.02254395 130.30462402 80.02254395 130.30462402 73.15917969 130.36035156 C67.62744141 130.37841797 67.62744141 130.37841797 65.02716064 130.3817749 C63.2343141 130.38786516 61.4414826 130.40182394 59.64874268 130.42230225 C49.01243875 130.53758899 39.92790337 130.31874715 30 126 C28.45872003 125.4364413 26.91711739 124.87376316 25.375 124.3125 C14.1002626 119.04278578 7.86885067 109.09289289 2.125 98.5625 C-1.33109926 87.61818568 -0.13217441 75.04890009 -0.09765625 63.671875 C-0.09618237 62.0359704 -0.09516441 60.40006532 -0.09460449 58.76416016 C-0.08940328 52.75943282 -0.07544218 46.75471564 -0.0625 40.75 C-0.041875 27.3025 -0.02125 13.855 0 0 Z " fill="#F8970A" transform="translate(28,157)"/>
<path d="M0 0 C42.9 0 85.8 0 130 0 C130.0825 14.251875 130.165 28.50375 130.25 43.1875 C130.28641602 47.6633667 130.32283203 52.1392334 130.36035156 56.75073242 C130.37841797 62.2779541 130.37841797 62.2779541 130.3817749 64.87739563 C130.38785886 66.66686499 130.40180398 68.45631947 130.42230225 70.24568176 C130.62344487 88.75272575 127.74199723 102.90483106 114.625 116.9375 C110.42953836 120.92709296 106.40187716 123.06688677 101 125 C99.22808613 125.72653696 97.45725658 126.45572382 95.6875 127.1875 C89.82145152 129.55847934 84.88775144 130.14196395 78.55957031 130.11352539 C77.26530687 130.11370619 77.26530687 130.11370619 75.9448967 130.11389065 C73.15594644 130.11314513 70.36706328 130.10553332 67.578125 130.09765625 C65.85465528 130.09618571 64.1311851 130.09516569 62.40771484 130.09460449 C56.02180308 130.08936457 49.63590088 130.07540335 43.25 130.0625 C28.9775 130.041875 14.705 130.02125 0 130 C0 87.1 0 44.2 0 0 Z " fill="#DCDBDB" transform="translate(160,157)"/>
<path d="M0 0 C1.71227195 0.00737413 3.42455528 0.01246099 5.13684082 0.01525879 C11.40520395 0.04121039 17.67332399 0.11101531 23.94140625 0.17578125 C45.00984375 0.33046875 45.00984375 0.33046875 66.50390625 0.48828125 C66.50390625 43.38828125 66.50390625 86.28828125 66.50390625 130.48828125 C23.60390625 130.48828125 -19.29609375 130.48828125 -63.49609375 130.48828125 C-63.59921875 115.88578125 -63.70234375 101.28328125 -63.80859375 86.23828125 C-63.85411377 81.64889648 -63.89963379 77.05951172 -63.9465332 72.33105469 C-63.96911621 66.67236328 -63.96911621 66.67236328 -63.97331238 64.01275635 C-63.98092739 62.17822178 -63.99838076 60.34371026 -64.02397156 58.50933838 C-64.25840646 40.80021106 -60.6693032 27.82550313 -48.12109375 14.73828125 C-34.20102397 1.46351272 -18.40652563 -0.26827149 0 0 Z " fill="#F9970B" transform="translate(91.49609375,24.51171875)"/>
<path d="M0 0 C0.66 0 1.32 0 2 0 C2 42.9 2 85.8 2 130 C44.57 130 87.14 130 131 130 C131 101.29 131 72.58 131 43 C131.33 43 131.66 43 132 43 C132 72.37 132 101.74 132 132 C89.1 132 46.2 132 2 132 C2 174.9 2 217.8 2 262 C16.1075 261.9175 30.215 261.835 44.75 261.75 C49.18276367 261.73420898 53.61552734 261.71841797 58.18261719 261.70214844 C62.20208084 261.66887466 62.20208084 261.66887466 66.22149658 261.63043213 C67.99342515 261.61594427 69.76542686 261.60905144 71.53741455 261.60845947 C82.13147029 261.59887421 91.08725686 261.15783093 101 257 C102.99564296 256.32040187 104.99469512 255.65053575 107 255 C104.39686352 258.14583985 101.46007698 259.20647624 97.6875 260.625 C96.57761719 261.05039062 95.46773437 261.47578125 94.32421875 261.9140625 C88.83485859 263.70729649 83.70008891 264.12646446 77.94332886 264.14044189 C76.9131587 264.14489858 76.9131587 264.14489858 75.86217701 264.1494453 C73.57330728 264.15807924 71.28449017 264.15963603 68.99560547 264.16113281 C67.34918609 264.16576482 65.70276778 264.17078999 64.05635071 264.17617798 C59.59116704 264.18926877 55.1259984 264.19574066 50.66079855 264.20018864 C47.86694355 264.20312526 45.0730926 264.20723121 42.27923965 264.21169281 C33.52588924 264.22536016 24.77254815 264.23503005 16.01918781 264.2388947 C5.93739855 264.24337109 -4.14425485 264.26090272 -14.22600281 264.2898953 C-22.03346821 264.31156293 -29.84089553 264.32160172 -37.64839065 264.32293582 C-42.30448697 264.32398038 -46.96045544 264.32981339 -51.61651993 264.34775543 C-56.00128883 264.3643238 -60.38583497 264.36634942 -64.77062416 264.35761642 C-66.37170194 264.35685067 -67.97279213 264.36112722 -69.57383919 264.37107468 C-82.02471761 264.44383891 -92.95490521 263.1597644 -104 257 C-102 256 -102 256 -99.7578125 256.7421875 C-98.88898438 257.11601562 -98.02015625 257.48984375 -97.125 257.875 C-91.04306661 260.47116858 -86.08307492 261.15819774 -79.46777344 261.20532227 C-78.15864172 261.22037135 -78.15864172 261.22037135 -76.8230629 261.23572445 C-74.00186047 261.2670719 -71.18064398 261.29186516 -68.359375 261.31640625 C-66.61604356 261.33481315 -64.8727166 261.35365002 -63.12939453 261.3729248 C-56.66964945 261.4413291 -50.20981839 261.50140966 -43.75 261.5625 C-22.09375 261.7790625 -22.09375 261.7790625 0 262 C0 219.1 0 176.2 0 132 C-42.9 132 -85.8 132 -130 132 C-129.67 162.36 -129.34 192.72 -129 224 C-129.33 224 -129.66 224 -130 224 C-130.99035054 219.87847351 -131.12330644 216.02602694 -131.12025452 211.79301453 C-131.12110894 211.07820429 -131.12196337 210.36339406 -131.12284368 209.62692291 C-131.12448746 207.2378285 -131.11899519 204.84880471 -131.11352539 202.4597168 C-131.11324326 200.74471539 -131.11340177 199.02971386 -131.1139679 197.31471252 C-131.11425484 192.66225384 -131.10837468 188.00982093 -131.10139394 183.35736823 C-131.09514332 178.49400955 -131.09455525 173.63065028 -131.09336853 168.76728821 C-131.09026026 159.55929752 -131.08205365 150.35131871 -131.07201904 141.14333326 C-131.06084227 130.65974245 -131.05534351 120.17615107 -131.05032361 109.69255579 C-131.03987063 88.1283639 -131.02228092 66.5641827 -131 45 C-130.67 45 -130.34 45 -130 45 C-130 73.05 -130 101.1 -130 130 C-87.1 130 -44.2 130 0 130 C0 87.1 0 44.2 0 0 Z " fill="#A76A12" transform="translate(158,25)"/>
<path d="M0 0 C3.40847895 2.85840742 6.67886757 5.64899479 9.6875 8.9375 C11.70982576 11.21713749 11.70982576 11.21713749 13.81640625 10.9453125 C16.98306986 9.57441341 18.86882748 7.41266618 21.25 4.9375 C22.14203125 4.01839844 23.0340625 3.09929687 23.953125 2.15234375 C24.62859375 1.44207031 25.3040625 0.73179687 26 0 C31.18010355 2.50961538 31.18010355 2.50961538 33 5 C32.73592902 9.28172229 29.88888075 11.410697 26.9375 14.25 C26.01839844 15.14203125 25.09929687 16.0340625 24.15234375 16.953125 C23.44207031 17.62859375 22.73179688 18.3040625 22 19 C23.53643852 22.68069887 25.78150945 24.98775204 28.625 27.75 C29.44226563 28.54921875 30.25953125 29.3484375 31.1015625 30.171875 C31.72804687 30.77515625 32.35453125 31.3784375 33 32 C30.49038462 37.18010355 30.49038462 37.18010355 28 39 C23.71827771 38.73592902 21.589303 35.88888075 18.75 32.9375 C17.85796875 32.01839844 16.9659375 31.09929687 16.046875 30.15234375 C15.37140625 29.44207031 14.6959375 28.73179687 14 28 C13.57589844 28.36351562 13.15179688 28.72703125 12.71484375 29.1015625 C8.4765625 32.734375 4.23828125 36.3671875 0 40 C-1.98 38.02 -3.96 36.04 -6 34 C-4.46356148 30.31930113 -2.21849055 28.01224796 0.625 25.25 C1.44226563 24.45078125 2.25953125 23.6515625 3.1015625 22.828125 C3.72804688 22.22484375 4.35453125 21.6215625 5 21 C3.46356148 17.31930113 1.21849055 15.01224796 -1.625 12.25 C-2.44226563 11.45078125 -3.25953125 10.6515625 -4.1015625 9.828125 C-4.72804688 9.22484375 -5.35453125 8.6215625 -6 8 C-4.44805246 4.67240077 -2.69378051 2.51419515 0 0 Z " fill="#FDFBF8" transform="translate(79,201)"/>
<path d="M0 0 C3.63 0 7.26 0 11 0 C11 5.94 11 11.88 11 18 C16.94 18 22.88 18 29 18 C29 21.3 29 24.6 29 28 C22.73 28 16.46 28 10 28 C10 33.94 10 39.88 10 46 C7.03 46 4.06 46 1 46 C1 40.06 1 34.12 1 28 C-5.27 28 -11.54 28 -18 28 C-18 24.7 -18 21.4 -18 18 C-12.06 18 -6.12 18 0 18 C0 12.06 0 6.12 0 0 Z " fill="#FDFBF6" transform="translate(87,70)"/>
<path d="M0 0 C15.51 0 31.02 0 47 0 C47 3.3 47 6.6 47 10 C31.49 10 15.98 10 0 10 C0 6.7 0 3.4 0 0 Z " fill="#7A7A7A" transform="translate(202,226)"/>
<path d="M0 0 C15.51 0 31.02 0 47 0 C47 3.3 47 6.6 47 10 C31.49 10 15.98 10 0 10 C0 6.7 0 3.4 0 0 Z " fill="#787878" transform="translate(202,205)"/>
<path d="M0 0 C15.51 0 31.02 0 47 0 C47 3.3 47 6.6 47 10 C31.49 10 15.98 10 0 10 C0 6.7 0 3.4 0 0 Z " fill="#FEFCF9" transform="translate(201,88)"/>
</svg>
